<?xml version="1.0" encoding="UTF-8" standalone="no"?>
<svg
   xmlns:dc="http://purl.org/dc/elements/1.1/"
   xmlns:cc="http://creativecommons.org/ns#"
   xmlns:rdf="http://www.w3.org/1999/02/22-rdf-syntax-ns#"
   xmlns:svg="http://www.w3.org/2000/svg"
   xmlns="http://www.w3.org/2000/svg"
   viewBox="0 0 890.77332 859"
   height="859"
   width="890.77332"
   xml:space="preserve"
   id="svg2"
   version="1.1"><metadata
     id="metadata8"><rdf:RDF><cc:Work
         rdf:about=""><dc:format>image/svg+xml</dc:format><dc:type
           rdf:resource="http://purl.org/dc/dcmitype/StillImage" /></cc:Work></rdf:RDF></metadata><defs
     id="defs6" /><g
     transform="matrix(1.3333333,0,0,-1.3333333,0,859)"
     id="g10"><g
       transform="scale(0.1)"
       id="g12"><path
         id="path14"
         style="fill:#233d51;fill-opacity:1;fill-rule:nonzero;stroke:none"
         d="m 559.984,1426.54 c 11.403,0 22.809,2.53 32.942,7.6 29.14,12.67 48.144,41.81 48.144,73.49 0,29.13 -15.203,49.4 -24.074,58.27 -10.133,10.14 -29.141,22.81 -57.012,22.81 H 158.367 V 1425.27 Z M 717.086,1018.58 798.168,860.219 H 620.801 l -81.082,158.361 -84.891,165.97 -3.797,7.61 c -27.871,45.6 -77.285,76.01 -134.297,76.01 H 158.367 V 860.219 H 0 v 886.851 h 559.984 c 65.883,0 125.43,-26.6 168.5,-69.68 43.079,-44.34 69.684,-103.88 69.684,-169.76 0,-96.29 -57.012,-179.91 -139.359,-217.92 -21.539,-10.14 -44.344,-16.47 -68.418,-19.01 l 126.695,-252.12" /><path
         id="path16"
         style="fill:#233d51;fill-opacity:1;fill-rule:nonzero;stroke:none"
         d="m 1084.53,1508.89 v -82.35 h 570.12 v -158.37 h -570.12 v -167.23 c 0,-44.35 36.74,-81.09 81.09,-81.09 h 647.4 V 861.488 h -647.4 c -131.77,0 -238.186,107.684 -238.186,239.452 v 407.95 c 0,131.77 106.416,239.45 238.186,239.45 h 647.4 v -158.37 h -647.4 c -44.35,0 -81.09,-36.74 -81.09,-81.08" /><path
         id="path18"
         style="fill:#233d51;fill-opacity:1;fill-rule:nonzero;stroke:none"
         d="m 2620.09,1502.56 v 5.07 c 0,44.33 -36.74,81.08 -81.09,81.08 h -359.81 c -44.34,0 -81.08,-36.75 -81.08,-81.08 v -5.07 c 0,-44.35 36.74,-81.08 81.08,-81.08 h 319.27 c 82.36,0 155.84,-35.48 206.52,-91.22 3.79,-3.8 6.33,-7.61 10.13,-11.41 39.27,-48.15 63.35,-110.23 63.35,-177.37 0,-154.57 -125.43,-279.992 -280,-279.992 h -277.45 c -154.57,0 -280,125.422 -280,279.992 h 158.37 c 0,-67.15 54.48,-121.63 121.63,-121.63 h 277.45 c 67.15,0 122.9,54.48 122.9,121.63 0,67.14 -55.75,121.63 -122.9,121.63 h -319.27 c -64.61,0 -122.89,25.33 -165.96,67.15 -11.41,11.39 -21.54,24.07 -30.41,38 -26.6,38.01 -41.81,84.89 -41.81,135.56 v 5.07 c 0,131.77 106.42,239.45 238.18,239.45 H 2539 c 131.77,0 239.46,-107.68 239.46,-239.45 v -5.07 l -158.37,-1.26" /><path
         id="path20"
         style="fill:#233d51;fill-opacity:1;fill-rule:nonzero;stroke:none"
         d="M 3790.77,1747.07 V 1588.71 H 3427.16 V 860.219 h -158.37 v 728.491 h -363.6 v 158.36 h 885.58" /><path
         id="path22"
         style="fill:#233d51;fill-opacity:1;fill-rule:nonzero;stroke:none"
         d="m 4615.58,1304.91 c 0,157.1 -127.97,285.06 -285.07,285.06 -157.1,0 -285.06,-127.96 -285.06,-285.06 0,-157.1 127.96,-285.06 285.06,-285.06 157.1,0 285.07,127.96 285.07,285.06 z m 158.36,0 c 0,-244.52 -198.91,-443.422 -443.43,-443.422 -244.51,0 -443.43,198.902 -443.43,443.422 0,244.52 198.92,443.43 443.43,443.43 244.52,0 443.43,-198.91 443.43,-443.43" /><path
         id="path24"
         style="fill:#233d51;fill-opacity:1;fill-rule:nonzero;stroke:none"
         d="m 5427.72,1426.54 c 11.4,0 22.81,2.53 32.94,7.6 29.14,12.67 48.15,41.81 48.15,73.49 0,29.13 -15.21,49.4 -24.07,58.27 -10.14,10.14 -29.14,22.81 -57.02,22.81 H 5026.1 v -163.44 z m 157.1,-407.96 81.09,-158.361 h -177.37 l -81.09,158.361 -84.88,165.97 -3.81,7.61 c -27.87,45.6 -77.28,76.01 -134.29,76.01 H 5026.1 V 860.219 h -158.37 v 886.851 h 559.99 c 65.88,0 125.42,-26.6 168.5,-69.68 43.08,-44.34 69.69,-103.88 69.69,-169.76 0,-96.29 -57.01,-179.91 -139.37,-217.92 -21.54,-10.14 -44.34,-16.47 -68.41,-19.01 l 126.69,-252.12" /><path
         id="path26"
         style="fill:#233d51;fill-opacity:1;fill-rule:nonzero;stroke:none"
         d="m 5952.28,1508.89 v -82.35 h 570.11 v -158.37 h -570.11 v -167.23 c 0,-44.35 36.73,-81.09 81.08,-81.09 h 647.4 V 861.488 h -647.4 c -131.77,0 -238.19,107.684 -238.19,239.452 v 407.95 c 0,131.77 106.42,239.45 238.19,239.45 h 647.4 v -158.37 h -647.4 c -44.35,0 -81.08,-36.74 -81.08,-81.08" /><path
         id="path28"
         style="fill:#d0a04e;fill-opacity:1;fill-rule:evenodd;stroke:none"
         d="m 1786.77,6442.51 4.09,-868.03 0.1,112.4 297.99,0.07 v 453.36 h 1638.62 c 120.33,0 226.8,-35.95 311.67,-121.75 84.99,-85.97 133.81,-205.24 133.81,-326.1 0,-58.51 -8.37,-119.63 -29.65,-173.2 -40.07,-100.82 -189.5,-210.93 -281.32,-285.3 l 248.94,-189.93 81.13,65.23 c 171.22,137.66 276.04,356.92 276.04,583.2 0,199.43 -73.9,389.06 -213.72,530.92 -137.45,139.48 -336.2,219.13 -531.55,219.13 H 1786.77" /><path
         id="path30"
         style="fill:#233d51;fill-opacity:1;fill-rule:evenodd;stroke:none"
         d="m 1790.96,5686.88 1477.12,0.3 L 4765.1,4544.97 V 3246.73 l -1483.71,1145.03 -0.55,-0.42 -248.04,187.41 0.64,0.48 -312.49,243.94 -620.88,-487.85 0.33,-52.61 0.28,-0.16 -0.06,-30.97 2.51,-388.96 0.17,0.12 -3.55,-382.9 -0.88,-0.67 -0.24,-101.74 237.85,-189.58 698.69,3.72 -662.3,498.73 257.51,198.53 1321.62,-1003.35 -8.59,-0.02 H 2224.94 l -427.32,338.56 0.06,170.59 v 1084.6 l 911.2,733.77 L 4462,3872.78 v 512.98 L 3178.71,5381.07 H 1790.66 l 0.3,305.81" /><path
         id="path32"
         style="fill:#d1994e;fill-opacity:1;fill-rule:evenodd;stroke:none"
         d="m 2099.75,3479.76 1181.81,911.05 -249.6,188.57 -928.66,-716.53 -3.55,-383.09" /><path
         id="path34"
         style="fill:#d0a04e;fill-opacity:1;fill-rule:nonzero;stroke:none"
         d="M 764.648,327.129 V 0.929688 H 706.395 V 208.77 l -57.313,-43.809 -47.535,-36.813 -47.531,36.813 -57.317,43.809 V 0.929688 H 438.445 V 327.129 l 58.254,-44.738 104.848,-80.61 104.848,80.61 58.253,44.738" /><path
         id="path36"
         style="fill:#d0a04e;fill-opacity:1;fill-rule:nonzero;stroke:none"
         d="m 1210.28,0.929688 h -65.24 L 1115.21,59.1797 1043.92,198.98 972.617,59.1797 942.793,0.929688 H 877.551 L 907.371,59.1797 1043.92,327.129 1180.45,59.1797 1210.28,0.929688" /><path
         id="path38"
         style="fill:#d0a04e;fill-opacity:1;fill-rule:nonzero;stroke:none"
         d="M 964.824,122.602 H 1131.03 V 64.3516 H 964.824 v 58.2504" /><path
         id="path40"
         style="fill:#d0a04e;fill-opacity:1;fill-rule:nonzero;stroke:none"
         d="M 1789.59,326.66 V 0.460938 L 1731.34,45.1992 1521.64,206.91 V 0.460938 h -58.25 V 325.73 l 58.25,-44.73 209.7,-161.699 v 207.828 l 58.25,-0.469" /><path
         id="path42"
         style="fill:#d0a04e;fill-opacity:1;fill-rule:nonzero;stroke:none"
         d="M 2222.09,326.66 V 268.422 H 2088.35 V 0.460938 H 2030.1 V 268.422 h -133.74 v 58.238 h 325.73" /><path
         id="path44"
         style="fill:#d0a04e;fill-opacity:1;fill-rule:nonzero;stroke:none"
         d="M 2551.14,0.929688 H 2485.9 L 2456.07,59.1797 2384.78,198.98 2313.48,59.1797 2283.65,0.929688 h -65.24 L 2248.23,59.1797 2384.78,327.129 2521.31,59.1797 2551.14,0.929688" /><path
         id="path46"
         style="fill:#d0a04e;fill-opacity:1;fill-rule:nonzero;stroke:none"
         d="M 2639.27,0.929688 V 327.129 h 58.25 V 0.929688 h -58.25" /><path
         id="path48"
         style="fill:#d0a04e;fill-opacity:1;fill-rule:nonzero;stroke:none"
         d="M 3130.47,326.66 V 0.460938 L 3072.22,45.1992 2862.52,206.91 V 0.460938 h -58.25 V 325.73 l 58.25,-44.73 209.7,-161.699 v 207.828 l 58.25,-0.469" /><path
         id="path50"
         style="fill:#d0a04e;fill-opacity:1;fill-rule:nonzero;stroke:none"
         d="m 3670.62,136.531 h -109.98 c -20.5,0 -37.74,-17.23 -37.74,-38.2107 0,-20.5 17.24,-37.7383 37.74,-37.7383 h 109.98 z m 116.03,58.258 V 136.07 H 3728.4 V 2.32813 h -168.22 c -52.66,0 -95.53,42.87107 -95.53,95.53127 0,26.1016 10.24,49.8596 27.02,67.1016 -16.78,17.25 -27.02,41.008 -27.02,67.098 0,52.671 42.87,95.543 95.53,95.543 h 168.22 v -58.25 h -168.22 c -20.51,0 -37.75,-17.25 -37.75,-37.75 0,-20.973 17.24,-38.211 37.75,-38.211 l 226.47,1.398" /><path
         id="path52"
         style="fill:#d0a04e;fill-opacity:1;fill-rule:nonzero;stroke:none"
         d="m 4325.41,208.301 c 4.19,0 8.39,0.929 12.12,2.789 10.71,4.66 17.7,15.39 17.7,27.039 0,10.711 -5.59,18.172 -8.85,21.43 -3.73,3.73 -10.72,8.39 -20.97,8.39 H 4177.69 V 207.828 Z M 4383.19,58.2383 4413.02,0 h -65.25 l -29.82,58.2383 -31.22,61.0627 -1.4,2.789 c -10.25,16.781 -28.43,27.961 -49.39,27.961 h -58.25 V 0 h -58.26 v 326.199 h 205.98 c 24.23,0 46.13,-9.777 61.98,-25.629 15.84,-15.84 25.63,-37.75 25.63,-61.98 0,-35.422 -20.97,-66.18 -51.26,-80.149 -7.92,-3.73 -16.31,-6.062 -25.17,-6.992 l 46.6,-93.2107" /><path
         id="path54"
         style="fill:#d0a04e;fill-opacity:1;fill-rule:nonzero;stroke:none"
         d="M 4578.5,239.051 V 208.77 h 209.69 V 150.52 H 4578.5 V 89 c 0,-16.3008 13.51,-29.8203 29.82,-29.8203 h 238.13 V 0.929688 h -238.13 c -48.47,0 -87.61,39.609412 -87.61,88.070312 v 150.051 c 0,48.469 39.14,88.078 87.61,88.078 h 238.13 v -58.25 h -238.13 c -16.31,0 -29.82,-13.52 -29.82,-29.828" /><path
         id="path56"
         style="fill:#d0a04e;fill-opacity:1;fill-rule:nonzero;stroke:none"
         d="m 5171.75,212.031 c 10.72,4.66 17.7,15.367 17.7,27.02 0,10.73 -5.58,18.179 -8.84,21.437 -3.73,3.731 -10.73,8.391 -20.98,8.391 H 5011.9 V 208.77 h 147.73 c 4.2,0 8.39,0.929 12.12,2.789 z m 49.86,89.008 c 15.84,-16.309 25.63,-38.219 25.63,-62.449 0,-35.422 -20.97,-66.18 -51.26,-80.149 -7.92,-3.73 -16.31,-6.062 -25.16,-6.992 -0.94,0 -1.86,0 -2.8,0 V 150.98 H 5011.9 V 0.929688 h -58.24 V 327.129 h 205.51 c 24.23,0 46.13,-9.789 61.97,-25.629 l 0.47,-0.461" /><path
         id="path58"
         style="fill:#d0a04e;fill-opacity:1;fill-rule:nonzero;stroke:none"
         d="m 5595.87,0.929688 h -65.24 L 5500.81,59.1797 5429.51,198.98 5358.21,59.1797 5328.39,0.929688 h -65.25 L 5292.97,59.1797 5429.51,327.129 5566.04,59.1797 5595.87,0.929688" /><path
         id="path60"
         style="fill:#d0a04e;fill-opacity:1;fill-rule:nonzero;stroke:none"
         d="M 5683.97,0.929688 V 327.129 h 58.26 V 0.929688 h -58.26" /><path
         id="path62"
         style="fill:#d0a04e;fill-opacity:1;fill-rule:nonzero;stroke:none"
         d="m 6054.48,208.301 c 4.19,0 8.39,0.929 12.12,2.789 10.71,4.66 17.71,15.39 17.71,27.039 0,10.711 -5.6,18.172 -8.86,21.43 -3.72,3.73 -10.71,8.39 -20.97,8.39 H 5906.76 V 207.828 Z M 6112.27,58.2383 6142.09,0 h -65.24 l -29.83,58.2383 -31.22,61.0627 -1.4,2.789 c -10.25,16.781 -28.42,27.961 -49.39,27.961 h -58.25 V 0 h -58.25 v 326.199 h 205.97 c 24.23,0 46.14,-9.777 61.98,-25.629 15.84,-15.84 25.63,-37.75 25.63,-61.98 0,-35.422 -20.97,-66.18 -51.26,-80.149 -7.92,-3.73 -16.31,-6.062 -25.17,-6.992 l 46.61,-93.2107" /><path
         id="path64"
         style="fill:#d0a04e;fill-opacity:1;fill-rule:nonzero;stroke:none"
         d="m 2307.42,122.621 h 166.2 V 64.3711 h -166.2 v 58.2499" /><path
         id="path66"
         style="fill:#d0a04e;fill-opacity:1;fill-rule:nonzero;stroke:none"
         d="m 5347.4,122.629 h 166.2 V 64.3789 h -166.2 v 58.2501" /><path
         id="path68"
         style="fill:#d0a04e;fill-opacity:1;fill-rule:nonzero;stroke:none"
         d="M 1289.31,0.929688 V 327.129 h 58.25 V 0.929688 h -58.25" /></g></g></svg>